<svg width="80" height="80" viewBox="0 0 80 80" fill="none" xmlns="http://www.w3.org/2000/svg">
<path fill-rule="evenodd" clip-rule="evenodd" d="M0.739198 75.6917C-0.246399 76.6773 -0.246399 78.2752 0.739198 79.2608C1.7248 80.2464 3.32276 80.2464 4.30836 79.2608L40 43.5692L75.6917 79.2608C76.6773 80.2464 78.2753 80.2464 79.2608 79.2608C80.2464 78.2752 80.2464 76.6773 79.2608 75.6917L43.5692 40L79.2608 4.30836C80.2464 3.32277 80.2464 1.7248 79.2608 0.739199C78.2752 -0.246399 76.6773 -0.2464 75.6917 0.739197L40 36.4308L4.30838 0.739197C3.32278 -0.2464 1.72482 -0.246399 0.739218 0.739199C-0.24638 1.7248 -0.24638 3.32277 0.739218 4.30836L36.4309 40L0.739198 75.6917Z" fill="black"/>
</svg>
